<svg viewBox="0 0 24 24" fill="none" xmlns="http://www.w3.org/2000/svg">
  <!-- House roof -->
  <path 
    d="M12 2L3 9h3v8h12V9h3L12 2z" 
    stroke="#f97316" 
    stroke-width="1.5" 
    stroke-linejoin="round"
    fill="none"
  />
  <!-- Gauge arc inside house -->
  <path 
    d="M7 12a5 5 0 0 1 10 0" 
    stroke="#f97316" 
    stroke-width="1.5" 
    stroke-linecap="round"
    fill="none"
  />
  <!-- Gauge needle -->
  <path 
    d="M12 12l2.5-3.5" 
    stroke="#ea580c" 
    stroke-width="1.5" 
    stroke-linecap="round"
  />
  <!-- Center dot -->
  <circle cx="12" cy="12" r="1.2" fill="#f97316" />
  <!-- Water waves at bottom -->
  <path 
    d="M3 19c1.5-1 3-1 4.5 0s3 1 4.5 0 3-1 4.5 0 3 1 4.5 0" 
    stroke="#f97316" 
    stroke-width="1.5" 
    stroke-linecap="round"
    fill="none"
  />
  <path 
    d="M3 22c1.5-1 3-1 4.5 0s3 1 4.5 0 3-1 4.5 0 3 1 4.5 0" 
    stroke="#fdba74" 
    stroke-width="1.5" 
    stroke-linecap="round"
    fill="none"
  />
</svg>
